<?xml version="1.0" encoding="UTF-8" standalone="no"?>
<!DOCTYPE svg PUBLIC "-//W3C//DTD SVG 1.1//EN"
 "http://www.w3.org/Graphics/SVG/1.1/DTD/svg11.dtd">
<!-- Generated by graphviz version 2.43.0 (0)
 -->
<!-- Title: SmallCNN Pages: 1 -->
<svg width="911pt" height="1339pt"
 viewBox="0.00 0.00 911.00 1339.06" xmlns="http://www.w3.org/2000/svg" xmlns:xlink="http://www.w3.org/1999/xlink">
<g id="graph0" class="graph" transform="scale(1 1) rotate(0) translate(4 1335.06)">
<title>SmallCNN</title>
<polygon fill="white" stroke="transparent" points="-4,4 -4,-1335.06 907,-1335.06 907,4 -4,4"/>
<text text-anchor="start" x="8" y="-1316.86" font-family="Times,serif" font-weight="bold" font-size="14.00">SmallCNN</text>
<text text-anchor="start" x="8" y="-1302.86" font-family="Times,serif" font-size="14.00">11 tensors total (31.3 KB)</text>
<text text-anchor="start" x="8" y="-1288.86" font-family="Times,serif" font-size="14.00">6362 params (all trainable, 24.9 KB)</text>
<g id="clust2" class="cluster">
<title>cluster_torchlens_encoding_legend</title>
<path fill="white" stroke="black" d="M341,-1057.14C341,-1057.14 883,-1057.14 883,-1057.14 889,-1057.14 895,-1063.14 895,-1069.14 895,-1069.14 895,-1130.14 895,-1130.14 895,-1136.14 889,-1142.14 883,-1142.14 883,-1142.14 341,-1142.14 341,-1142.14 335,-1142.14 329,-1136.14 329,-1130.14 329,-1130.14 329,-1069.14 329,-1069.14 329,-1063.14 335,-1057.14 341,-1057.14"/>
<text text-anchor="middle" x="408.5" y="-1064.94" font-family="Times,serif" font-size="14.00">TorchLens encoding</text>
</g>
<!-- input_1pass1 -->
<g id="node1" class="node">
<title>input_1pass1</title>
<ellipse fill="#ffffff" stroke="black" cx="183" cy="-45.96" rx="119.5" ry="45.92"/>
<text text-anchor="start" x="153.5" y="-61.76" font-family="Times,serif" font-weight="bold" font-size="14.00">input_1</text>
<text text-anchor="start" x="109" y="-41.76" font-family="Times,serif" font-size="14.00">(1, 3, 16, 16), 3.0 KB</text>
<text text-anchor="start" x="151" y="-22.76" font-family="Times,serif" font-size="14.00">@input.x</text>
</g>
<!-- conv2d_1_1pass1 -->
<g id="node2" class="node">
<title>conv2d_1_1pass1</title>
<polygon fill="#0072b2" stroke="black" points="323.5,-230.92 42.5,-230.92 42.5,-127.92 323.5,-127.92 323.5,-230.92"/>
<text text-anchor="start" x="139" y="-214.22" font-family="Times,serif" font-weight="bold" font-size="14.00">conv2d_1_1</text>
<text text-anchor="start" x="109" y="-194.22" font-family="Times,serif" font-size="14.00">(1, 8, 16, 16), 8.0 KB</text>
<text text-anchor="start" x="60.5" y="-175.22" font-family="Times,serif" font-size="14.00">kernel_size=(3, 3), padding=(1, 1)</text>
<text text-anchor="start" x="53" y="-156.22" font-family="Times,serif" font-size="14.00">params: weight (8, 3, 3, 3) · bias (8,)</text>
<text text-anchor="start" x="155" y="-137.22" font-family="Times,serif" font-size="14.00">@conv1</text>
</g>
<!-- input_1pass1&#45;&gt;conv2d_1_1pass1 -->
<g id="edge1" class="edge">
<title>input_1pass1&#45;&gt;conv2d_1_1pass1</title>
<path fill="none" stroke="black" d="M183,-92.2C183,-101.32 183,-111.02 183,-120.5"/>
<polygon fill="black" stroke="black" points="180.55,-120.69 183,-127.69 185.45,-120.69 180.55,-120.69"/>
</g>
<!-- relu_1_2pass1 -->
<g id="node3" class="node">
<title>relu_1_2pass1</title>
<ellipse fill="#d6e8f2" stroke="black" cx="183" cy="-299.45" rx="119.5" ry="32.55"/>
<text text-anchor="start" x="150.5" y="-306.25" font-family="Times,serif" font-weight="bold" font-size="14.00">relu_1_2</text>
<text text-anchor="start" x="109" y="-286.25" font-family="Times,serif" font-size="14.00">(1, 8, 16, 16), 8.0 KB</text>
</g>
<!-- conv2d_1_1pass1&#45;&gt;relu_1_2pass1 -->
<g id="edge2" class="edge">
<title>conv2d_1_1pass1&#45;&gt;relu_1_2pass1</title>
<path fill="none" stroke="black" d="M183,-231.16C183,-240.73 183,-250.59 183,-259.71"/>
<polygon fill="black" stroke="black" points="180.55,-259.85 183,-266.85 185.45,-259.85 180.55,-259.85"/>
</g>
<!-- conv2d_2_3pass1 -->
<g id="node4" class="node">
<title>conv2d_2_3pass1</title>
<polygon fill="#9dc9e1" stroke="black" points="366,-470.98 0,-470.98 0,-367.98 366,-367.98 366,-470.98"/>
<text text-anchor="start" x="138.5" y="-454.28" font-family="Times,serif" font-weight="bold" font-size="14.00">conv2d_2_3</text>
<text text-anchor="start" x="113" y="-434.28" font-family="Times,serif" font-size="14.00">(1, 16, 8, 8), 4.0 KB</text>
<text text-anchor="start" x="10" y="-415.28" font-family="Times,serif" font-size="14.00">kernel_size=(3, 3), stride=(2, 2), padding=(1, 1)</text>
<text text-anchor="start" x="43.5" y="-396.28" font-family="Times,serif" font-size="14.00">params: weight (16, 8, 3, 3) · bias (16,)</text>
<text text-anchor="start" x="154.5" y="-377.28" font-family="Times,serif" font-size="14.00">@conv2</text>
</g>
<!-- relu_1_2pass1&#45;&gt;conv2d_2_3pass1 -->
<g id="edge3" class="edge">
<title>relu_1_2pass1&#45;&gt;conv2d_2_3pass1</title>
<path fill="none" stroke="black" d="M183,-332.08C183,-340.87 183,-350.7 183,-360.5"/>
<polygon fill="black" stroke="black" points="180.55,-360.61 183,-367.61 185.45,-360.61 180.55,-360.61"/>
</g>
<!-- relu_2_4pass1 -->
<g id="node5" class="node">
<title>relu_2_4pass1</title>
<ellipse fill="#e4f0f7" stroke="black" cx="183" cy="-539.5" rx="113.27" ry="32.55"/>
<text text-anchor="start" x="150" y="-546.3" font-family="Times,serif" font-weight="bold" font-size="14.00">relu_2_4</text>
<text text-anchor="start" x="113" y="-526.3" font-family="Times,serif" font-size="14.00">(1, 16, 8, 8), 4.0 KB</text>
</g>
<!-- conv2d_2_3pass1&#45;&gt;relu_2_4pass1 -->
<g id="edge4" class="edge">
<title>conv2d_2_3pass1&#45;&gt;relu_2_4pass1</title>
<path fill="none" stroke="black" d="M183,-471.22C183,-480.78 183,-490.64 183,-499.76"/>
<polygon fill="black" stroke="black" points="180.55,-499.9 183,-506.9 185.45,-499.9 180.55,-499.9"/>
</g>
<!-- conv2d_3_5pass1 -->
<g id="node6" class="node">
<title>conv2d_3_5pass1</title>
<polygon fill="#98c6e0" stroke="black" points="366,-711.03 0,-711.03 0,-608.03 366,-608.03 366,-711.03"/>
<text text-anchor="start" x="138.5" y="-694.33" font-family="Times,serif" font-weight="bold" font-size="14.00">conv2d_3_5</text>
<text text-anchor="start" x="113" y="-674.33" font-family="Times,serif" font-size="14.00">(1, 32, 4, 4), 2.0 KB</text>
<text text-anchor="start" x="10" y="-655.33" font-family="Times,serif" font-size="14.00">kernel_size=(3, 3), stride=(2, 2), padding=(1, 1)</text>
<text text-anchor="start" x="39" y="-636.33" font-family="Times,serif" font-size="14.00">params: weight (32, 16, 3, 3) · bias (32,)</text>
<text text-anchor="start" x="154.5" y="-617.33" font-family="Times,serif" font-size="14.00">@conv3</text>
</g>
<!-- relu_2_4pass1&#45;&gt;conv2d_3_5pass1 -->
<g id="edge5" class="edge">
<title>relu_2_4pass1&#45;&gt;conv2d_3_5pass1</title>
<path fill="none" stroke="black" d="M183,-572.13C183,-580.93 183,-590.76 183,-600.55"/>
<polygon fill="black" stroke="black" points="180.55,-600.66 183,-607.66 185.45,-600.66 180.55,-600.66"/>
</g>
<!-- relu_3_6pass1 -->
<g id="node7" class="node">
<title>relu_3_6pass1</title>
<ellipse fill="#e3f0f7" stroke="black" cx="183" cy="-779.56" rx="113.27" ry="32.55"/>
<text text-anchor="start" x="150" y="-786.36" font-family="Times,serif" font-weight="bold" font-size="14.00">relu_3_6</text>
<text text-anchor="start" x="113" y="-766.36" font-family="Times,serif" font-size="14.00">(1, 32, 4, 4), 2.0 KB</text>
</g>
<!-- conv2d_3_5pass1&#45;&gt;relu_3_6pass1 -->
<g id="edge6" class="edge">
<title>conv2d_3_5pass1&#45;&gt;relu_3_6pass1</title>
<path fill="none" stroke="black" d="M183,-711.27C183,-720.83 183,-730.69 183,-739.82"/>
<polygon fill="black" stroke="black" points="180.55,-739.96 183,-746.96 185.45,-739.96 180.55,-739.96"/>
</g>
<!-- adaptiveavgpool2d_1_7pass1 -->
<g id="node8" class="node">
<title>adaptiveavgpool2d_1_7pass1</title>
<polygon fill="#4a9bc8" stroke="black" points="283,-932.09 83,-932.09 83,-848.09 283,-848.09 283,-932.09"/>
<text text-anchor="start" x="93" y="-915.89" font-family="Times,serif" font-weight="bold" font-size="14.00">adaptiveavgpool2d_1_7</text>
<text text-anchor="start" x="116" y="-895.89" font-family="Times,serif" font-size="14.00">(1, 32, 1, 1), 128 B</text>
<text text-anchor="start" x="131.5" y="-876.89" font-family="Times,serif" font-size="14.00">output_size=1</text>
<text text-anchor="start" x="160.5" y="-857.89" font-family="Times,serif" font-size="14.00">@pool</text>
</g>
<!-- relu_3_6pass1&#45;&gt;adaptiveavgpool2d_1_7pass1 -->
<g id="edge7" class="edge">
<title>relu_3_6pass1&#45;&gt;adaptiveavgpool2d_1_7pass1</title>
<path fill="none" stroke="black" d="M183,-812.24C183,-821.12 183,-830.97 183,-840.58"/>
<polygon fill="black" stroke="black" points="180.55,-840.86 183,-847.86 185.45,-840.86 180.55,-840.86"/>
</g>
<!-- flatten_1_8pass1 -->
<g id="node9" class="node">
<title>flatten_1_8pass1</title>
<ellipse fill="#e2eff6" stroke="black" cx="183" cy="-1000.61" rx="83.38" ry="32.55"/>
<text text-anchor="start" x="140" y="-1007.41" font-family="Times,serif" font-weight="bold" font-size="14.00">flatten_1_8</text>
<text text-anchor="start" x="134" y="-987.41" font-family="Times,serif" font-size="14.00">(1, 32), 128 B</text>
</g>
<!-- adaptiveavgpool2d_1_7pass1&#45;&gt;flatten_1_8pass1 -->
<g id="edge8" class="edge">
<title>adaptiveavgpool2d_1_7pass1&#45;&gt;flatten_1_8pass1</title>
<path fill="none" stroke="black" d="M183,-932.11C183,-941.59 183,-951.63 183,-960.99"/>
<polygon fill="black" stroke="black" points="180.55,-961 183,-968 185.45,-961 180.55,-961"/>
</g>
<!-- linear_1_9pass1 -->
<g id="node10" class="node">
<title>linear_1_9pass1</title>
<polygon fill="#bddbeb" stroke="black" points="319,-1153.14 47,-1153.14 47,-1069.14 319,-1069.14 319,-1153.14"/>
<text text-anchor="start" x="143" y="-1136.94" font-family="Times,serif" font-weight="bold" font-size="14.00">linear_1_9</text>
<text text-anchor="start" x="138.5" y="-1116.94" font-family="Times,serif" font-size="14.00">(1, 10), 40 B</text>
<text text-anchor="start" x="57" y="-1097.94" font-family="Times,serif" font-size="14.00">params: weight (10, 32) · bias (10,)</text>
<text text-anchor="start" x="158.5" y="-1078.94" font-family="Times,serif" font-size="14.00">@head</text>
</g>
<!-- flatten_1_8pass1&#45;&gt;linear_1_9pass1 -->
<g id="edge9" class="edge">
<title>flatten_1_8pass1&#45;&gt;linear_1_9pass1</title>
<path fill="none" stroke="black" d="M183,-1033.29C183,-1042.17 183,-1052.02 183,-1061.64"/>
<polygon fill="black" stroke="black" points="180.55,-1061.92 183,-1068.92 185.45,-1061.92 180.55,-1061.92"/>
</g>
<!-- output_1pass1 -->
<g id="node11" class="node">
<title>output_1pass1</title>
<ellipse fill="#ffffff" stroke="black" cx="183" cy="-1235.1" rx="77.15" ry="45.92"/>
<text text-anchor="start" x="148.5" y="-1250.9" font-family="Times,serif" font-weight="bold" font-size="14.00">output_1</text>
<text text-anchor="start" x="139" y="-1230.9" font-family="Times,serif" font-size="14.00">(1, 10), 40 B</text>
<text text-anchor="start" x="152.5" y="-1211.9" font-family="Times,serif" font-size="14.00">@output</text>
</g>
<!-- linear_1_9pass1&#45;&gt;output_1pass1 -->
<g id="edge10" class="edge">
<title>linear_1_9pass1&#45;&gt;output_1pass1</title>
<path fill="none" stroke="black" d="M183,-1153.43C183,-1162.57 183,-1172.37 183,-1181.89"/>
<polygon fill="black" stroke="black" points="180.55,-1182.09 183,-1189.09 185.45,-1182.09 180.55,-1182.09"/>
</g>
<!-- tl_encoding_legend_0 -->
<g id="node12" class="node">
<title>tl_encoding_legend_0</title>
<path fill="white" stroke="black" d="M875,-1134.14C875,-1134.14 769,-1134.14 769,-1134.14 763,-1134.14 757,-1128.14 757,-1122.14 757,-1122.14 757,-1100.14 757,-1100.14 757,-1094.14 763,-1088.14 769,-1088.14 769,-1088.14 875,-1088.14 875,-1088.14 881,-1088.14 887,-1094.14 887,-1100.14 887,-1100.14 887,-1122.14 887,-1122.14 887,-1128.14 881,-1134.14 875,-1134.14"/>
<text text-anchor="start" x="767" y="-1117.94" font-family="Times,serif" font-weight="bold" font-size="14.00">color_by: time</text>
<text text-anchor="start" x="768" y="-1097.94" font-family="Times,serif" font-size="14.00">linear min&#45;max</text>
</g>
<!-- tl_encoding_legend_1 -->
<g id="node13" class="node">
<title>tl_encoding_legend_1</title>
<path fill="#ffffff" stroke="black" d="M726.5,-1129.14C726.5,-1129.14 651.5,-1129.14 651.5,-1129.14 645.5,-1129.14 639.5,-1123.14 639.5,-1117.14 639.5,-1117.14 639.5,-1105.14 639.5,-1105.14 639.5,-1099.14 645.5,-1093.14 651.5,-1093.14 651.5,-1093.14 726.5,-1093.14 726.5,-1093.14 732.5,-1093.14 738.5,-1099.14 738.5,-1105.14 738.5,-1105.14 738.5,-1117.14 738.5,-1117.14 738.5,-1123.14 732.5,-1129.14 726.5,-1129.14"/>
<text text-anchor="start" x="650" y="-1107.94" font-family="Times,serif" font-weight="bold" font-size="14.00">min: 0 ms</text>
</g>
<!-- tl_encoding_legend_2 -->
<g id="node14" class="node">
<title>tl_encoding_legend_2</title>
<path fill="#80b8d8" stroke="black" d="M609,-1129.14C609,-1129.14 501,-1129.14 501,-1129.14 495,-1129.14 489,-1123.14 489,-1117.14 489,-1117.14 489,-1105.14 489,-1105.14 489,-1099.14 495,-1093.14 501,-1093.14 501,-1093.14 609,-1093.14 609,-1093.14 615,-1093.14 621,-1099.14 621,-1105.14 621,-1105.14 621,-1117.14 621,-1117.14 621,-1123.14 615,-1129.14 609,-1129.14"/>
<text text-anchor="start" x="499" y="-1107.94" font-family="Times,serif" font-weight="bold" font-size="14.00">mid: 0.158 ms</text>
</g>
<!-- tl_encoding_legend_3 -->
<g id="node15" class="node">
<title>tl_encoding_legend_3</title>
<path fill="#0072b2" stroke="black" d="M459,-1129.14C459,-1129.14 349,-1129.14 349,-1129.14 343,-1129.14 337,-1123.14 337,-1117.14 337,-1117.14 337,-1105.14 337,-1105.14 337,-1099.14 343,-1093.14 349,-1093.14 349,-1093.14 459,-1093.14 459,-1093.14 465,-1093.14 471,-1099.14 471,-1105.14 471,-1105.14 471,-1117.14 471,-1117.14 471,-1123.14 465,-1129.14 459,-1129.14"/>
<text text-anchor="start" x="347" y="-1107.94" font-family="Times,serif" font-weight="bold" font-size="14.00">max: 0.315 ms</text>
</g>
</g>
</svg>
