<?xml version="1.0" encoding="UTF-8" standalone="no"?>
<!DOCTYPE svg PUBLIC "-//W3C//DTD SVG 1.1//EN"
 "http://www.w3.org/Graphics/SVG/1.1/DTD/svg11.dtd">
<!-- Generated by graphviz version 2.43.0 (0)
 -->
<!-- Title: MiniTransformerBlock Pages: 1 -->
<svg width="794pt" height="3125pt"
 viewBox="0.00 0.00 794.17 3124.75" xmlns="http://www.w3.org/2000/svg" xmlns:xlink="http://www.w3.org/1999/xlink">
<g id="graph0" class="graph" transform="scale(1 1) rotate(0) translate(4 3120.75)">
<title>MiniTransformerBlock</title>
<polygon fill="white" stroke="transparent" points="-4,4 -4,-3120.75 790.17,-3120.75 790.17,4 -4,4"/>
<text text-anchor="start" x="8" y="-3102.55" font-family="Times,serif" font-weight="bold" font-size="14.00">MiniTransformerBlock</text>
<text text-anchor="start" x="8" y="-3088.55" font-family="Times,serif" font-size="14.00">34 tensors total (19.5 KB)</text>
<text text-anchor="start" x="8" y="-3074.55" font-family="Times,serif" font-size="14.00">3280 params (all trainable, 12.8 KB)</text>
<g id="clust2" class="cluster">
<title>cluster_attn_pass1</title>
<polygon fill="white" stroke="black" stroke-width="5" points="8,-246.92 8,-2246.67 700,-2246.67 700,-246.92 8,-246.92"/>
<text text-anchor="start" x="16" y="-2232.47" font-family="Times,serif" font-weight="bold" font-size="14.00">@attn</text>
<text text-anchor="start" x="16" y="-2218.47" font-family="Times,serif" font-size="14.00">(MultiheadAttention)</text>
</g>
<!-- input_1pass1 -->
<g id="node1" class="node">
<title>input_1pass1</title>
<ellipse fill="#98fb98" stroke="black" cx="556" cy="-45.96" rx="96.33" ry="45.92"/>
<text text-anchor="start" x="526" y="-61.76" font-family="Times,serif" font-weight="bold" font-size="14.00">input_1</text>
<text text-anchor="start" x="498" y="-41.76" font-family="Times,serif" font-size="14.00">(1, 6, 16), 384 B</text>
<text text-anchor="start" x="523.5" y="-22.76" font-family="Times,serif" font-size="14.00">@input.x</text>
</g>
<!-- layernorm_1_1pass1 -->
<g id="node2" class="node">
<title>layernorm_1_1pass1</title>
<polygon fill="#d9d9d9" stroke="black" points="611.5,-230.92 332.5,-230.92 332.5,-127.92 611.5,-127.92 611.5,-230.92"/>
<text text-anchor="start" x="415" y="-214.22" font-family="Times,serif" font-weight="bold" font-size="14.00">layernorm_1_1</text>
<text text-anchor="start" x="414.5" y="-194.22" font-family="Times,serif" font-size="14.00">(1, 6, 16), 384 B</text>
<text text-anchor="start" x="343" y="-175.22" font-family="Times,serif" font-size="14.00">normalized_shape=(16,), eps=1e&#45;05</text>
<text text-anchor="start" x="358" y="-156.22" font-family="Times,serif" font-size="14.00">params: weight (16,) · bias (16,)</text>
<text text-anchor="start" x="442" y="-137.22" font-family="Times,serif" font-size="14.00">@norm1</text>
</g>
<!-- input_1pass1&#45;&gt;layernorm_1_1pass1 -->
<g id="edge1" class="edge">
<title>input_1pass1&#45;&gt;layernorm_1_1pass1</title>
<path fill="none" stroke="black" d="M528.5,-90.01C522.1,-100.02 515.18,-110.84 508.47,-121.35"/>
<polygon fill="black" stroke="black" points="506.24,-120.29 504.54,-127.5 510.37,-122.92 506.24,-120.29"/>
</g>
<!-- add_1_27pass1 -->
<g id="node3" class="node">
<title>add_1_27pass1</title>
<ellipse fill="white" stroke="black" cx="688" cy="-2287.2" rx="96.33" ry="32.55"/>
<text text-anchor="start" x="652" y="-2294" font-family="Times,serif" font-weight="bold" font-size="14.00">add_1_27</text>
<text text-anchor="start" x="630" y="-2274" font-family="Times,serif" font-size="14.00">(1, 6, 16), 384 B</text>
</g>
<!-- input_1pass1&#45;&gt;add_1_27pass1 -->
<g id="edge2" class="edge">
<title>input_1pass1&#45;&gt;add_1_27pass1</title>
<path fill="none" stroke="black" d="M603.09,-86.16C654.62,-133.73 730,-219.17 730,-311.89 730,-311.89 730,-311.89 730,-2031.22 730,-2127.67 728.08,-2153.27 704,-2246.67 703.87,-2247.18 703.73,-2247.69 703.59,-2248.21"/>
<polygon fill="black" stroke="black" points="701.23,-2247.54 701.52,-2254.95 705.92,-2248.98 701.23,-2247.54"/>
</g>
<!-- transpose_1_2pass1 -->
<g id="node4" class="node">
<title>transpose_1_2pass1</title>
<ellipse fill="white" stroke="black" cx="427" cy="-312.89" rx="101.65" ry="45.92"/>
<text text-anchor="start" x="371" y="-328.69" font-family="Times,serif" font-weight="bold" font-size="14.00">transpose_1_2</text>
<text text-anchor="start" x="369" y="-308.69" font-family="Times,serif" font-size="14.00">(6, 1, 16), 384 B</text>
<text text-anchor="start" x="365" y="-289.69" font-family="Times,serif" font-size="14.00">dim0=1, dim1=0</text>
</g>
<!-- layernorm_1_1pass1&#45;&gt;transpose_1_2pass1 -->
<g id="edge3" class="edge">
<title>layernorm_1_1pass1&#45;&gt;transpose_1_2pass1</title>
<path fill="none" stroke="black" d="M454.6,-231.25C451.34,-240.79 447.92,-250.76 444.65,-260.32"/>
<polygon fill="black" stroke="black" points="442.25,-259.78 442.3,-267.19 446.88,-261.36 442.25,-259.78"/>
</g>
<!-- layernorm_2_28pass1 -->
<g id="node29" class="node">
<title>layernorm_2_28pass1</title>
<polygon fill="#d9d9d9" stroke="black" points="743.5,-2458.72 464.5,-2458.72 464.5,-2355.72 743.5,-2355.72 743.5,-2458.72"/>
<text text-anchor="start" x="542.5" y="-2442.02" font-family="Times,serif" font-weight="bold" font-size="14.00">layernorm_2_28</text>
<text text-anchor="start" x="546.5" y="-2422.02" font-family="Times,serif" font-size="14.00">(1, 6, 16), 384 B</text>
<text text-anchor="start" x="475" y="-2403.02" font-family="Times,serif" font-size="14.00">normalized_shape=(16,), eps=1e&#45;05</text>
<text text-anchor="start" x="490" y="-2384.02" font-family="Times,serif" font-size="14.00">params: weight (16,) · bias (16,)</text>
<text text-anchor="start" x="574" y="-2365.02" font-family="Times,serif" font-size="14.00">@norm2</text>
</g>
<!-- add_1_27pass1&#45;&gt;layernorm_2_28pass1 -->
<g id="edge5" class="edge">
<title>add_1_27pass1&#45;&gt;layernorm_2_28pass1</title>
<path fill="none" stroke="black" d="M666.15,-2318.9C659.42,-2328.35 651.79,-2339.07 644.24,-2349.68"/>
<polygon fill="black" stroke="black" points="642.12,-2348.44 640.06,-2355.56 646.11,-2351.28 642.12,-2348.44"/>
</g>
<!-- add_2_32pass1 -->
<g id="node30" class="node">
<title>add_2_32pass1</title>
<ellipse fill="white" stroke="black" cx="690" cy="-2906.3" rx="96.33" ry="32.55"/>
<text text-anchor="start" x="654" y="-2913.1" font-family="Times,serif" font-weight="bold" font-size="14.00">add_2_32</text>
<text text-anchor="start" x="632" y="-2893.1" font-family="Times,serif" font-size="14.00">(1, 6, 16), 384 B</text>
</g>
<!-- add_1_27pass1&#45;&gt;add_2_32pass1 -->
<g id="edge6" class="edge">
<title>add_1_27pass1&#45;&gt;add_2_32pass1</title>
<path fill="none" stroke="black" d="M724.41,-2317.41C735.44,-2328.23 746.38,-2341.4 753,-2355.72 788.53,-2432.55 772,-2460.58 772,-2545.22 772,-2545.22 772,-2545.22 772,-2667.25 772,-2743.51 784.85,-2768.49 753,-2837.78 747.52,-2849.7 739.1,-2860.9 730.19,-2870.62"/>
<polygon fill="black" stroke="black" points="728.25,-2869.11 725.2,-2875.87 731.8,-2872.48 728.25,-2869.11"/>
</g>
<!-- linear_1_3pass1 -->
<g id="node5" class="node">
<title>linear_1_3pass1</title>
<ellipse fill="#d9d9d9" stroke="black" cx="382" cy="-454.24" rx="270.64" ry="59.29"/>
<text text-anchor="start" x="342.5" y="-480.04" font-family="Times,serif" font-weight="bold" font-size="14.00">linear_1_3</text>
<text text-anchor="start" x="321.5" y="-460.04" font-family="Times,serif" font-size="14.00">(6, 1, 48), 1.1 KB</text>
<text text-anchor="start" x="263.5" y="-441.04" font-family="Times,serif" font-size="14.00">in_features=16, out_features=48</text>
<text text-anchor="start" x="201" y="-422.04" font-family="Times,serif" font-size="14.00">params: in_proj_weight (48, 16) · in_proj_bias (48,)</text>
</g>
<!-- transpose_1_2pass1&#45;&gt;linear_1_3pass1 -->
<g id="edge12" class="edge">
<title>transpose_1_2pass1&#45;&gt;linear_1_3pass1</title>
<path fill="none" stroke="black" d="M412.51,-358.75C409.49,-368.12 406.24,-378.18 403.03,-388.12"/>
<polygon fill="black" stroke="black" points="400.64,-387.56 400.82,-394.98 405.3,-389.07 400.64,-387.56"/>
</g>
<!-- unflatten_1_4pass1 -->
<g id="node6" class="node">
<title>unflatten_1_4pass1</title>
<ellipse fill="white" stroke="black" cx="381" cy="-582.17" rx="113.27" ry="32.55"/>
<text text-anchor="start" x="327.5" y="-588.97" font-family="Times,serif" font-weight="bold" font-size="14.00">unflatten_1_4</text>
<text text-anchor="start" x="311" y="-568.97" font-family="Times,serif" font-size="14.00">(6, 1, 3, 16), 1.1 KB</text>
</g>
<!-- linear_1_3pass1&#45;&gt;unflatten_1_4pass1 -->
<g id="edge13" class="edge">
<title>linear_1_3pass1&#45;&gt;unflatten_1_4pass1</title>
<path fill="none" stroke="black" d="M381.54,-513.78C381.46,-523.51 381.38,-533.39 381.31,-542.46"/>
<polygon fill="black" stroke="black" points="378.86,-542.54 381.25,-549.56 383.76,-542.57 378.86,-542.54"/>
</g>
<!-- unsqueeze_1_5pass1 -->
<g id="node7" class="node">
<title>unsqueeze_1_5pass1</title>
<ellipse fill="white" stroke="black" cx="380" cy="-683.22" rx="125.73" ry="32.55"/>
<text text-anchor="start" x="321" y="-690.02" font-family="Times,serif" font-weight="bold" font-size="14.00">unsqueeze_1_5</text>
<text text-anchor="start" x="301" y="-670.02" font-family="Times,serif" font-size="14.00">(1, 6, 1, 3, 16), 1.1 KB</text>
</g>
<!-- unflatten_1_4pass1&#45;&gt;unsqueeze_1_5pass1 -->
<g id="edge14" class="edge">
<title>unflatten_1_4pass1&#45;&gt;unsqueeze_1_5pass1</title>
<path fill="none" stroke="black" d="M380.68,-614.78C380.59,-623.9 380.49,-633.95 380.39,-643.44"/>
<polygon fill="black" stroke="black" points="377.94,-643.55 380.32,-650.57 382.84,-643.59 377.94,-643.55"/>
</g>
<!-- transpose_2_6pass1 -->
<g id="node8" class="node">
<title>transpose_2_6pass1</title>
<ellipse fill="white" stroke="black" cx="379" cy="-797.71" rx="125.73" ry="45.92"/>
<text text-anchor="start" x="323" y="-813.51" font-family="Times,serif" font-weight="bold" font-size="14.00">transpose_2_6</text>
<text text-anchor="start" x="300" y="-793.51" font-family="Times,serif" font-size="14.00">(3, 6, 1, 1, 16), 1.1 KB</text>
<text text-anchor="start" x="315" y="-774.51" font-family="Times,serif" font-size="14.00">dim0=0, dim1=&#45;2</text>
</g>
<!-- unsqueeze_1_5pass1&#45;&gt;transpose_2_6pass1 -->
<g id="edge15" class="edge">
<title>unsqueeze_1_5pass1&#45;&gt;transpose_2_6pass1</title>
<path fill="none" stroke="black" d="M379.72,-715.86C379.64,-724.75 379.55,-734.66 379.46,-744.41"/>
<polygon fill="black" stroke="black" points="377.01,-744.44 379.4,-751.47 381.91,-744.49 377.01,-744.44"/>
</g>
<!-- squeeze_1_7pass1 -->
<g id="node9" class="node">
<title>squeeze_1_7pass1</title>
<ellipse fill="white" stroke="black" cx="365" cy="-912.2" rx="113.27" ry="32.55"/>
<text text-anchor="start" x="316.5" y="-919" font-family="Times,serif" font-weight="bold" font-size="14.00">squeeze_1_7</text>
<text text-anchor="start" x="295" y="-899" font-family="Times,serif" font-size="14.00">(3, 6, 1, 16), 1.1 KB</text>
</g>
<!-- transpose_2_6pass1&#45;&gt;squeeze_1_7pass1 -->
<g id="edge16" class="edge">
<title>transpose_2_6pass1&#45;&gt;squeeze_1_7pass1</title>
<path fill="none" stroke="black" d="M373.39,-843.82C372.21,-853.27 370.98,-863.16 369.83,-872.36"/>
<polygon fill="black" stroke="black" points="367.37,-872.32 368.94,-879.57 372.23,-872.93 367.37,-872.32"/>
</g>
<!-- contiguous_1_8pass1 -->
<g id="node10" class="node">
<title>contiguous_1_8pass1</title>
<ellipse fill="white" stroke="black" cx="363" cy="-1013.25" rx="113.27" ry="32.55"/>
<text text-anchor="start" x="302.5" y="-1020.05" font-family="Times,serif" font-weight="bold" font-size="14.00">contiguous_1_8</text>
<text text-anchor="start" x="293" y="-1000.05" font-family="Times,serif" font-size="14.00">(3, 6, 1, 16), 1.1 KB</text>
</g>
<!-- squeeze_1_7pass1&#45;&gt;contiguous_1_8pass1 -->
<g id="edge17" class="edge">
<title>squeeze_1_7pass1&#45;&gt;contiguous_1_8pass1</title>
<path fill="none" stroke="black" d="M364.36,-944.81C364.18,-953.93 363.97,-963.98 363.78,-973.47"/>
<polygon fill="black" stroke="black" points="361.33,-973.55 363.64,-980.6 366.23,-973.65 361.33,-973.55"/>
</g>
<!-- getitem_1_9pass1 -->
<g id="node11" class="node">
<title>getitem_1_9pass1</title>
<ellipse fill="white" stroke="black" cx="142" cy="-1114.31" rx="96.33" ry="32.55"/>
<text text-anchor="start" x="94.5" y="-1121.11" font-family="Times,serif" font-weight="bold" font-size="14.00">getitem_1_9</text>
<text text-anchor="start" x="84" y="-1101.11" font-family="Times,serif" font-size="14.00">(6, 1, 16), 384 B</text>
</g>
<!-- contiguous_1_8pass1&#45;&gt;getitem_1_9pass1 -->
<g id="edge18" class="edge">
<title>contiguous_1_8pass1&#45;&gt;getitem_1_9pass1</title>
<path fill="none" stroke="black" d="M303.49,-1040.93C273.05,-1054.57 236,-1071.17 205.08,-1085.04"/>
<polygon fill="black" stroke="black" points="203.96,-1082.85 198.57,-1087.95 205.96,-1087.32 203.96,-1082.85"/>
</g>
<!-- getitem_2_10pass1 -->
<g id="node12" class="node">
<title>getitem_2_10pass1</title>
<ellipse fill="white" stroke="black" cx="358" cy="-1114.31" rx="96.33" ry="32.55"/>
<text text-anchor="start" x="305.5" y="-1121.11" font-family="Times,serif" font-weight="bold" font-size="14.00">getitem_2_10</text>
<text text-anchor="start" x="300" y="-1101.11" font-family="Times,serif" font-size="14.00">(6, 1, 16), 384 B</text>
</g>
<!-- contiguous_1_8pass1&#45;&gt;getitem_2_10pass1 -->
<g id="edge19" class="edge">
<title>contiguous_1_8pass1&#45;&gt;getitem_2_10pass1</title>
<path fill="none" stroke="black" d="M361.4,-1045.87C360.94,-1054.98 360.44,-1065.03 359.96,-1074.53"/>
<polygon fill="black" stroke="black" points="357.5,-1074.54 359.6,-1081.65 362.4,-1074.79 357.5,-1074.54"/>
</g>
<!-- getitem_3_11pass1 -->
<g id="node13" class="node">
<title>getitem_3_11pass1</title>
<ellipse fill="white" stroke="black" cx="574" cy="-1114.31" rx="96.33" ry="32.55"/>
<text text-anchor="start" x="521.5" y="-1121.11" font-family="Times,serif" font-weight="bold" font-size="14.00">getitem_3_11</text>
<text text-anchor="start" x="516" y="-1101.11" font-family="Times,serif" font-size="14.00">(6, 1, 16), 384 B</text>
</g>
<!-- contiguous_1_8pass1&#45;&gt;getitem_3_11pass1 -->
<g id="edge20" class="edge">
<title>contiguous_1_8pass1&#45;&gt;getitem_3_11pass1</title>
<path fill="none" stroke="black" d="M420.66,-1041.32C449.13,-1054.69 483.5,-1070.82 512.48,-1084.43"/>
<polygon fill="black" stroke="black" points="511.58,-1086.71 518.96,-1087.47 513.66,-1082.28 511.58,-1086.71"/>
</g>
<!-- view_1_12pass1 -->
<g id="node14" class="node">
<title>view_1_12pass1</title>
<ellipse fill="white" stroke="black" cx="136" cy="-1215.36" rx="89.61" ry="32.55"/>
<text text-anchor="start" x="97.5" y="-1222.16" font-family="Times,serif" font-weight="bold" font-size="14.00">view_1_12</text>
<text text-anchor="start" x="83" y="-1202.16" font-family="Times,serif" font-size="14.00">(6, 2, 8), 384 B</text>
</g>
<!-- getitem_1_9pass1&#45;&gt;view_1_12pass1 -->
<g id="edge21" class="edge">
<title>getitem_1_9pass1&#45;&gt;view_1_12pass1</title>
<path fill="none" stroke="black" d="M140.09,-1146.92C139.53,-1156.04 138.92,-1166.08 138.35,-1175.58"/>
<polygon fill="black" stroke="black" points="135.9,-1175.57 137.92,-1182.71 140.79,-1175.87 135.9,-1175.57"/>
</g>
<!-- view_2_14pass1 -->
<g id="node16" class="node">
<title>view_2_14pass1</title>
<ellipse fill="white" stroke="black" cx="355" cy="-1215.36" rx="89.61" ry="32.55"/>
<text text-anchor="start" x="316.5" y="-1222.16" font-family="Times,serif" font-weight="bold" font-size="14.00">view_2_14</text>
<text text-anchor="start" x="302" y="-1202.16" font-family="Times,serif" font-size="14.00">(6, 2, 8), 384 B</text>
</g>
<!-- getitem_2_10pass1&#45;&gt;view_2_14pass1 -->
<g id="edge22" class="edge">
<title>getitem_2_10pass1&#45;&gt;view_2_14pass1</title>
<path fill="none" stroke="black" d="M357.04,-1146.92C356.77,-1156.04 356.46,-1166.08 356.17,-1175.58"/>
<polygon fill="black" stroke="black" points="353.72,-1175.64 355.96,-1182.71 358.62,-1175.79 353.72,-1175.64"/>
</g>
<!-- view_3_16pass1 -->
<g id="node18" class="node">
<title>view_3_16pass1</title>
<ellipse fill="white" stroke="black" cx="575" cy="-1215.36" rx="89.61" ry="32.55"/>
<text text-anchor="start" x="536.5" y="-1222.16" font-family="Times,serif" font-weight="bold" font-size="14.00">view_3_16</text>
<text text-anchor="start" x="522" y="-1202.16" font-family="Times,serif" font-size="14.00">(6, 2, 8), 384 B</text>
</g>
<!-- getitem_3_11pass1&#45;&gt;view_3_16pass1 -->
<g id="edge23" class="edge">
<title>getitem_3_11pass1&#45;&gt;view_3_16pass1</title>
<path fill="none" stroke="black" d="M574.32,-1146.92C574.41,-1156.04 574.51,-1166.08 574.61,-1175.58"/>
<polygon fill="black" stroke="black" points="572.16,-1175.73 574.68,-1182.71 577.06,-1175.68 572.16,-1175.73"/>
</g>
<!-- transpose_3_13pass1 -->
<g id="node15" class="node">
<title>transpose_3_13pass1</title>
<ellipse fill="white" stroke="black" cx="131" cy="-1329.85" rx="101.65" ry="45.92"/>
<text text-anchor="start" x="70.5" y="-1345.65" font-family="Times,serif" font-weight="bold" font-size="14.00">transpose_3_13</text>
<text text-anchor="start" x="77.5" y="-1325.65" font-family="Times,serif" font-size="14.00">(2, 6, 8), 384 B</text>
<text text-anchor="start" x="69" y="-1306.65" font-family="Times,serif" font-size="14.00">dim0=0, dim1=1</text>
</g>
<!-- view_1_12pass1&#45;&gt;transpose_3_13pass1 -->
<g id="edge24" class="edge">
<title>view_1_12pass1&#45;&gt;transpose_3_13pass1</title>
<path fill="none" stroke="black" d="M134.59,-1248C134.2,-1256.88 133.76,-1266.8 133.32,-1276.55"/>
<polygon fill="black" stroke="black" points="130.87,-1276.5 133.01,-1283.6 135.77,-1276.72 130.87,-1276.5"/>
</g>
<!-- view_4_18pass1 -->
<g id="node20" class="node">
<title>view_4_18pass1</title>
<ellipse fill="white" stroke="black" cx="131" cy="-1444.34" rx="102.56" ry="32.55"/>
<text text-anchor="start" x="92.5" y="-1451.14" font-family="Times,serif" font-weight="bold" font-size="14.00">view_4_18</text>
<text text-anchor="start" x="69" y="-1431.14" font-family="Times,serif" font-size="14.00">(1, 2, 6, 8), 384 B</text>
</g>
<!-- transpose_3_13pass1&#45;&gt;view_4_18pass1 -->
<g id="edge25" class="edge">
<title>transpose_3_13pass1&#45;&gt;view_4_18pass1</title>
<path fill="none" stroke="black" d="M131,-1375.96C131,-1385.41 131,-1395.3 131,-1404.5"/>
<polygon fill="black" stroke="black" points="128.55,-1404.71 131,-1411.71 133.45,-1404.71 128.55,-1404.71"/>
</g>
<!-- transpose_4_15pass1 -->
<g id="node17" class="node">
<title>transpose_4_15pass1</title>
<ellipse fill="white" stroke="black" cx="354" cy="-1329.85" rx="101.65" ry="45.92"/>
<text text-anchor="start" x="293.5" y="-1345.65" font-family="Times,serif" font-weight="bold" font-size="14.00">transpose_4_15</text>
<text text-anchor="start" x="300.5" y="-1325.65" font-family="Times,serif" font-size="14.00">(2, 6, 8), 384 B</text>
<text text-anchor="start" x="292" y="-1306.65" font-family="Times,serif" font-size="14.00">dim0=0, dim1=1</text>
</g>
<!-- view_2_14pass1&#45;&gt;transpose_4_15pass1 -->
<g id="edge26" class="edge">
<title>view_2_14pass1&#45;&gt;transpose_4_15pass1</title>
<path fill="none" stroke="black" d="M354.72,-1248C354.64,-1256.88 354.55,-1266.8 354.46,-1276.55"/>
<polygon fill="black" stroke="black" points="352.01,-1276.58 354.4,-1283.6 356.91,-1276.63 352.01,-1276.58"/>
</g>
<!-- view_5_19pass1 -->
<g id="node21" class="node">
<title>view_5_19pass1</title>
<ellipse fill="white" stroke="black" cx="354" cy="-1444.34" rx="102.56" ry="32.55"/>
<text text-anchor="start" x="315.5" y="-1451.14" font-family="Times,serif" font-weight="bold" font-size="14.00">view_5_19</text>
<text text-anchor="start" x="292" y="-1431.14" font-family="Times,serif" font-size="14.00">(1, 2, 6, 8), 384 B</text>
</g>
<!-- transpose_4_15pass1&#45;&gt;view_5_19pass1 -->
<g id="edge27" class="edge">
<title>transpose_4_15pass1&#45;&gt;view_5_19pass1</title>
<path fill="none" stroke="black" d="M354,-1375.96C354,-1385.41 354,-1395.3 354,-1404.5"/>
<polygon fill="black" stroke="black" points="351.55,-1404.71 354,-1411.71 356.45,-1404.71 351.55,-1404.71"/>
</g>
<!-- transpose_5_17pass1 -->
<g id="node19" class="node">
<title>transpose_5_17pass1</title>
<ellipse fill="white" stroke="black" cx="576" cy="-1329.85" rx="101.65" ry="45.92"/>
<text text-anchor="start" x="515.5" y="-1345.65" font-family="Times,serif" font-weight="bold" font-size="14.00">transpose_5_17</text>
<text text-anchor="start" x="522.5" y="-1325.65" font-family="Times,serif" font-size="14.00">(2, 6, 8), 384 B</text>
<text text-anchor="start" x="514" y="-1306.65" font-family="Times,serif" font-size="14.00">dim0=0, dim1=1</text>
</g>
<!-- view_3_16pass1&#45;&gt;transpose_5_17pass1 -->
<g id="edge28" class="edge">
<title>view_3_16pass1&#45;&gt;transpose_5_17pass1</title>
<path fill="none" stroke="black" d="M575.28,-1248C575.36,-1256.88 575.45,-1266.8 575.54,-1276.55"/>
<polygon fill="black" stroke="black" points="573.09,-1276.63 575.6,-1283.6 577.99,-1276.58 573.09,-1276.63"/>
</g>
<!-- view_6_20pass1 -->
<g id="node22" class="node">
<title>view_6_20pass1</title>
<ellipse fill="white" stroke="black" cx="577" cy="-1444.34" rx="102.56" ry="32.55"/>
<text text-anchor="start" x="538.5" y="-1451.14" font-family="Times,serif" font-weight="bold" font-size="14.00">view_6_20</text>
<text text-anchor="start" x="515" y="-1431.14" font-family="Times,serif" font-size="14.00">(1, 2, 6, 8), 384 B</text>
</g>
<!-- transpose_5_17pass1&#45;&gt;view_6_20pass1 -->
<g id="edge29" class="edge">
<title>transpose_5_17pass1&#45;&gt;view_6_20pass1</title>
<path fill="none" stroke="black" d="M576.4,-1375.96C576.49,-1385.41 576.57,-1395.3 576.65,-1404.5"/>
<polygon fill="black" stroke="black" points="574.21,-1404.73 576.72,-1411.71 579.11,-1404.69 574.21,-1404.73"/>
</g>
<!-- scaleddotproductattention_1_21pass1 -->
<g id="node23" class="node">
<title>scaleddotproductattention_1_21pass1</title>
<ellipse fill="white" stroke="black" cx="359" cy="-1545.39" rx="193.08" ry="32.55"/>
<text text-anchor="start" x="233" y="-1552.19" font-family="Times,serif" font-weight="bold" font-size="14.00">scaleddotproductattention_1_21</text>
<text text-anchor="start" x="297" y="-1532.19" font-family="Times,serif" font-size="14.00">(1, 2, 6, 8), 384 B</text>
</g>
<!-- view_4_18pass1&#45;&gt;scaleddotproductattention_1_21pass1 -->
<g id="edge30" class="edge">
<title>view_4_18pass1&#45;&gt;scaleddotproductattention_1_21pass1</title>
<path fill="none" stroke="black" d="M190.01,-1470.98C218.84,-1483.5 253.83,-1498.7 284.48,-1512.02"/>
<polygon fill="black" stroke="black" points="283.55,-1514.29 290.95,-1514.83 285.5,-1509.79 283.55,-1514.29"/>
<text text-anchor="start" x="290.95" y="-1507.83" font-family="Times,serif" font-weight="bold" font-size="10.00">arg 0</text>
</g>
<!-- view_5_19pass1&#45;&gt;scaleddotproductattention_1_21pass1 -->
<g id="edge31" class="edge">
<title>view_5_19pass1&#45;&gt;scaleddotproductattention_1_21pass1</title>
<path fill="none" stroke="black" d="M355.6,-1476.95C356.06,-1486.07 356.56,-1496.12 357.04,-1505.61"/>
<polygon fill="black" stroke="black" points="354.6,-1505.87 357.4,-1512.74 359.5,-1505.63 354.6,-1505.87"/>
<text text-anchor="start" x="327.4" y="-1505.74" font-family="Times,serif" font-weight="bold" font-size="10.00">arg 1</text>
</g>
<!-- view_6_20pass1&#45;&gt;scaleddotproductattention_1_21pass1 -->
<g id="edge32" class="edge">
<title>view_6_20pass1&#45;&gt;scaleddotproductattention_1_21pass1</title>
<path fill="none" stroke="black" d="M519.72,-1471.36C492.51,-1483.73 459.71,-1498.63 430.85,-1511.75"/>
<polygon fill="black" stroke="black" points="429.73,-1509.56 424.37,-1514.69 431.76,-1514.03 429.73,-1509.56"/>
<text text-anchor="start" x="394.37" y="-1507.69" font-family="Times,serif" font-weight="bold" font-size="10.00">arg 2</text>
</g>
<!-- permute_1_22pass1 -->
<g id="node24" class="node">
<title>permute_1_22pass1</title>
<ellipse fill="white" stroke="black" cx="369" cy="-1659.88" rx="102.56" ry="45.92"/>
<text text-anchor="start" x="314" y="-1675.68" font-family="Times,serif" font-weight="bold" font-size="14.00">permute_1_22</text>
<text text-anchor="start" x="307" y="-1655.68" font-family="Times,serif" font-size="14.00">(6, 1, 2, 8), 384 B</text>
<text text-anchor="start" x="341.5" y="-1636.68" font-family="Times,serif" font-size="14.00">dims=2</text>
</g>
<!-- scaleddotproductattention_1_21pass1&#45;&gt;permute_1_22pass1 -->
<g id="edge33" class="edge">
<title>scaleddotproductattention_1_21pass1&#45;&gt;permute_1_22pass1</title>
<path fill="none" stroke="black" d="M361.81,-1578.03C362.6,-1586.92 363.48,-1596.83 364.35,-1606.58"/>
<polygon fill="black" stroke="black" points="361.92,-1606.88 364.98,-1613.64 366.8,-1606.45 361.92,-1606.88"/>
</g>
<!-- reshape_1_23pass1 -->
<g id="node25" class="node">
<title>reshape_1_23pass1</title>
<ellipse fill="white" stroke="black" cx="389" cy="-1774.37" rx="89.19" ry="32.55"/>
<text text-anchor="start" x="336" y="-1781.17" font-family="Times,serif" font-weight="bold" font-size="14.00">reshape_1_23</text>
<text text-anchor="start" x="340" y="-1761.17" font-family="Times,serif" font-size="14.00">(6, 16), 384 B</text>
</g>
<!-- permute_1_22pass1&#45;&gt;reshape_1_23pass1 -->
<g id="edge34" class="edge">
<title>permute_1_22pass1&#45;&gt;reshape_1_23pass1</title>
<path fill="none" stroke="black" d="M377.02,-1705.99C378.72,-1715.53 380.49,-1725.53 382.14,-1734.81"/>
<polygon fill="black" stroke="black" points="379.74,-1735.28 383.38,-1741.74 384.56,-1734.42 379.74,-1735.28"/>
</g>
<!-- linear_2_24pass1 -->
<g id="node26" class="node">
<title>linear_2_24pass1</title>
<ellipse fill="#d9d9d9" stroke="black" cx="456" cy="-1902.29" rx="192.17" ry="59.29"/>
<text text-anchor="start" x="411" y="-1928.09" font-family="Times,serif" font-weight="bold" font-size="14.00">linear_2_24</text>
<text text-anchor="start" x="407" y="-1908.09" font-family="Times,serif" font-size="14.00">(6, 16), 384 B</text>
<text text-anchor="start" x="337" y="-1889.09" font-family="Times,serif" font-size="14.00">in_features=16, out_features=16</text>
<text text-anchor="start" x="330" y="-1870.09" font-family="Times,serif" font-size="14.00">params: weight (16, 16) · bias (16,)</text>
</g>
<!-- reshape_1_23pass1&#45;&gt;linear_2_24pass1 -->
<g id="edge35" class="edge">
<title>reshape_1_23pass1&#45;&gt;linear_2_24pass1</title>
<path fill="none" stroke="black" d="M405.56,-1806.5C410.55,-1815.87 416.22,-1826.53 421.91,-1837.22"/>
<polygon fill="black" stroke="black" points="419.81,-1838.49 425.26,-1843.52 424.13,-1836.19 419.81,-1838.49"/>
</g>
<!-- view_7_25pass1 -->
<g id="node27" class="node">
<title>view_7_25pass1</title>
<ellipse fill="white" stroke="black" cx="495" cy="-2030.22" rx="96.33" ry="32.55"/>
<text text-anchor="start" x="456" y="-2037.02" font-family="Times,serif" font-weight="bold" font-size="14.00">view_7_25</text>
<text text-anchor="start" x="437" y="-2017.02" font-family="Times,serif" font-size="14.00">(6, 1, 16), 384 B</text>
</g>
<!-- linear_2_24pass1&#45;&gt;view_7_25pass1 -->
<g id="edge36" class="edge">
<title>linear_2_24pass1&#45;&gt;view_7_25pass1</title>
<path fill="none" stroke="black" d="M474.02,-1961.46C477.1,-1971.43 480.24,-1981.55 483.11,-1990.83"/>
<polygon fill="black" stroke="black" points="480.84,-1991.78 485.25,-1997.74 485.52,-1990.33 480.84,-1991.78"/>
</g>
<!-- transpose_6_26pass1 -->
<g id="node28" class="node">
<title>transpose_6_26pass1</title>
<ellipse fill="white" stroke="black" cx="573" cy="-2144.71" rx="101.65" ry="45.92"/>
<text text-anchor="start" x="512.5" y="-2160.51" font-family="Times,serif" font-weight="bold" font-size="14.00">transpose_6_26</text>
<text text-anchor="start" x="515" y="-2140.51" font-family="Times,serif" font-size="14.00">(1, 6, 16), 384 B</text>
<text text-anchor="start" x="511" y="-2121.51" font-family="Times,serif" font-size="14.00">dim0=1, dim1=0</text>
</g>
<!-- view_7_25pass1&#45;&gt;transpose_6_26pass1 -->
<g id="edge37" class="edge">
<title>view_7_25pass1&#45;&gt;transpose_6_26pass1</title>
<path fill="none" stroke="black" d="M516.31,-2061.96C523.3,-2072.04 531.26,-2083.51 538.95,-2094.6"/>
<polygon fill="black" stroke="black" points="536.94,-2096 542.94,-2100.36 540.97,-2093.21 536.94,-2096"/>
</g>
<!-- transpose_6_26pass1&#45;&gt;add_1_27pass1 -->
<g id="edge4" class="edge">
<title>transpose_6_26pass1&#45;&gt;add_1_27pass1</title>
<path fill="none" stroke="black" d="M607.82,-2188.24C623.87,-2207.85 642.74,-2230.9 658.14,-2249.71"/>
<polygon fill="black" stroke="black" points="656.47,-2251.54 662.8,-2255.41 660.26,-2248.44 656.47,-2251.54"/>
</g>
<!-- linear_3_29pass1 -->
<g id="node31" class="node">
<title>linear_3_29pass1</title>
<polygon fill="#d9d9d9" stroke="black" points="742,-2597.72 470,-2597.72 470,-2494.72 742,-2494.72 742,-2597.72"/>
<text text-anchor="start" x="561" y="-2581.02" font-family="Times,serif" font-weight="bold" font-size="14.00">linear_3_29</text>
<text text-anchor="start" x="545" y="-2561.02" font-family="Times,serif" font-size="14.00">(1, 6, 64), 1.5 KB</text>
<text text-anchor="start" x="487" y="-2542.02" font-family="Times,serif" font-size="14.00">in_features=16, out_features=64</text>
<text text-anchor="start" x="480" y="-2523.02" font-family="Times,serif" font-size="14.00">params: weight (64, 16) · bias (64,)</text>
<text text-anchor="start" x="587.5" y="-2504.02" font-family="Times,serif" font-size="14.00">@fc1</text>
</g>
<!-- layernorm_2_28pass1&#45;&gt;linear_3_29pass1 -->
<g id="edge7" class="edge">
<title>layernorm_2_28pass1&#45;&gt;linear_3_29pass1</title>
<path fill="none" stroke="black" d="M604.74,-2458.85C604.87,-2468.08 605.02,-2477.78 605.15,-2487.21"/>
<polygon fill="black" stroke="black" points="602.71,-2487.39 605.26,-2494.35 607.6,-2487.31 602.71,-2487.39"/>
</g>
<!-- output_1pass1 -->
<g id="node34" class="node">
<title>output_1pass1</title>
<ellipse fill="#ff9999" stroke="black" cx="690" cy="-3020.79" rx="96.33" ry="45.92"/>
<text text-anchor="start" x="655" y="-3036.59" font-family="Times,serif" font-weight="bold" font-size="14.00">output_1</text>
<text text-anchor="start" x="632" y="-3016.59" font-family="Times,serif" font-size="14.00">(1, 6, 16), 384 B</text>
<text text-anchor="start" x="659" y="-2997.59" font-family="Times,serif" font-size="14.00">@output</text>
</g>
<!-- add_2_32pass1&#45;&gt;output_1pass1 -->
<g id="edge11" class="edge">
<title>add_2_32pass1&#45;&gt;output_1pass1</title>
<path fill="none" stroke="black" d="M690,-2938.94C690,-2947.83 690,-2957.74 690,-2967.49"/>
<polygon fill="black" stroke="black" points="687.55,-2967.55 690,-2974.55 692.45,-2967.55 687.55,-2967.55"/>
</g>
<!-- relu_1_30pass1 -->
<g id="node32" class="node">
<title>relu_1_30pass1</title>
<ellipse fill="white" stroke="black" cx="608" cy="-2666.25" rx="100.32" ry="32.55"/>
<text text-anchor="start" x="570" y="-2673.05" font-family="Times,serif" font-weight="bold" font-size="14.00">relu_1_30</text>
<text text-anchor="start" x="547" y="-2653.05" font-family="Times,serif" font-size="14.00">(1, 6, 64), 1.5 KB</text>
</g>
<!-- linear_3_29pass1&#45;&gt;relu_1_30pass1 -->
<g id="edge8" class="edge">
<title>linear_3_29pass1&#45;&gt;relu_1_30pass1</title>
<path fill="none" stroke="black" d="M606.86,-2597.96C607.02,-2607.53 607.19,-2617.39 607.34,-2626.51"/>
<polygon fill="black" stroke="black" points="604.9,-2626.69 607.46,-2633.65 609.8,-2626.61 604.9,-2626.69"/>
</g>
<!-- linear_4_31pass1 -->
<g id="node33" class="node">
<title>linear_4_31pass1</title>
<polygon fill="#d9d9d9" stroke="black" points="744,-2837.78 472,-2837.78 472,-2734.78 744,-2734.78 744,-2837.78"/>
<text text-anchor="start" x="563" y="-2821.08" font-family="Times,serif" font-weight="bold" font-size="14.00">linear_4_31</text>
<text text-anchor="start" x="550" y="-2801.08" font-family="Times,serif" font-size="14.00">(1, 6, 16), 384 B</text>
<text text-anchor="start" x="489" y="-2782.08" font-family="Times,serif" font-size="14.00">in_features=64, out_features=16</text>
<text text-anchor="start" x="482" y="-2763.08" font-family="Times,serif" font-size="14.00">params: weight (16, 64) · bias (16,)</text>
<text text-anchor="start" x="589.5" y="-2744.08" font-family="Times,serif" font-size="14.00">@fc2</text>
</g>
<!-- relu_1_30pass1&#45;&gt;linear_4_31pass1 -->
<g id="edge9" class="edge">
<title>relu_1_30pass1&#45;&gt;linear_4_31pass1</title>
<path fill="none" stroke="black" d="M608,-2698.88C608,-2707.67 608,-2717.5 608,-2727.3"/>
<polygon fill="black" stroke="black" points="605.55,-2727.41 608,-2734.41 610.45,-2727.41 605.55,-2727.41"/>
</g>
<!-- linear_4_31pass1&#45;&gt;add_2_32pass1 -->
<g id="edge10" class="edge">
<title>linear_4_31pass1&#45;&gt;add_2_32pass1</title>
<path fill="none" stroke="black" d="M643.25,-2838.02C650.37,-2848.26 657.72,-2858.84 664.43,-2868.5"/>
<polygon fill="black" stroke="black" points="662.51,-2870.03 668.52,-2874.38 666.53,-2867.23 662.51,-2870.03"/>
</g>
</g>
</svg>
