<?xml version="1.0" encoding="UTF-8" standalone="no"?>
<!DOCTYPE svg PUBLIC "-//W3C//DTD SVG 1.1//EN"
 "http://www.w3.org/Graphics/SVG/1.1/DTD/svg11.dtd">
<!-- Generated by graphviz version 2.43.0 (0)
 -->
<!-- Title: SmallCNN Pages: 1 -->
<svg width="629pt" height="1358pt"
 viewBox="0.00 0.00 629.00 1358.06" xmlns="http://www.w3.org/2000/svg" xmlns:xlink="http://www.w3.org/1999/xlink">
<g id="graph0" class="graph" transform="scale(1 1) rotate(0) translate(4 1354.06)">
<title>SmallCNN</title>
<polygon fill="white" stroke="transparent" points="-4,4 -4,-1354.06 625,-1354.06 625,4 -4,4"/>
<text text-anchor="start" x="8" y="-1335.86" font-family="Times,serif" font-weight="bold" font-size="14.00">SmallCNN</text>
<text text-anchor="start" x="8" y="-1321.86" font-family="Times,serif" font-size="14.00">11 tensors total (31.3 KB)</text>
<text text-anchor="start" x="8" y="-1307.86" font-family="Times,serif" font-size="14.00">6362 params (all trainable, 24.9 KB)</text>
<!-- input_1pass1 -->
<g id="node1" class="node">
<title>input_1pass1</title>
<ellipse fill="#98fb98" stroke="black" cx="310.5" cy="-45.96" rx="119.5" ry="45.92"/>
<text text-anchor="start" x="281" y="-61.76" font-family="Times,serif" font-weight="bold" font-size="14.00">input_1</text>
<text text-anchor="start" x="236.5" y="-41.76" font-family="Times,serif" font-size="14.00">(1, 3, 16, 16), 3.0 KB</text>
<text text-anchor="start" x="278.5" y="-22.76" font-family="Times,serif" font-size="14.00">@input.x</text>
</g>
<!-- conv2d_1_1pass1 -->
<g id="node2" class="node">
<title>conv2d_1_1pass1</title>
<polygon fill="#d9d9d9" stroke="black" points="561.5,-230.92 59.5,-230.92 59.5,-127.92 561.5,-127.92 561.5,-230.92"/>
<text text-anchor="start" x="266" y="-214.22" font-family="Times,serif" font-weight="bold" font-size="14.00">conv2d_1_1</text>
<text text-anchor="start" x="236" y="-194.22" font-family="Times,serif" font-size="14.00">(1, 8, 16, 16), 8.0 KB</text>
<text text-anchor="start" x="69.5" y="-175.22" font-family="Times,serif" font-size="14.00">in_channels=3, out_channels=8, kernel_size=(3, 3), padding=(1, 1)</text>
<text text-anchor="start" x="180" y="-156.22" font-family="Times,serif" font-size="14.00">params: weight (8, 3, 3, 3) · bias (8,)</text>
<text text-anchor="start" x="282" y="-137.22" font-family="Times,serif" font-size="14.00">@conv1</text>
</g>
<!-- input_1pass1&#45;&gt;conv2d_1_1pass1 -->
<g id="edge1" class="edge">
<title>input_1pass1&#45;&gt;conv2d_1_1pass1</title>
<path fill="none" stroke="black" d="M310.5,-92.2C310.5,-101.32 310.5,-111.02 310.5,-120.5"/>
<polygon fill="black" stroke="black" points="308.05,-120.69 310.5,-127.69 312.95,-120.69 308.05,-120.69"/>
</g>
<!-- relu_1_2pass1 -->
<g id="node3" class="node">
<title>relu_1_2pass1</title>
<ellipse fill="white" stroke="black" cx="310.5" cy="-299.45" rx="119.5" ry="32.55"/>
<text text-anchor="start" x="278" y="-306.25" font-family="Times,serif" font-weight="bold" font-size="14.00">relu_1_2</text>
<text text-anchor="start" x="236.5" y="-286.25" font-family="Times,serif" font-size="14.00">(1, 8, 16, 16), 8.0 KB</text>
</g>
<!-- conv2d_1_1pass1&#45;&gt;relu_1_2pass1 -->
<g id="edge2" class="edge">
<title>conv2d_1_1pass1&#45;&gt;relu_1_2pass1</title>
<path fill="none" stroke="black" d="M310.5,-231.16C310.5,-240.73 310.5,-250.59 310.5,-259.71"/>
<polygon fill="black" stroke="black" points="308.05,-259.85 310.5,-266.85 312.95,-259.85 308.05,-259.85"/>
</g>
<!-- conv2d_2_3pass1 -->
<g id="node4" class="node">
<title>conv2d_2_3pass1</title>
<polygon fill="#d9d9d9" stroke="black" points="616.5,-470.98 4.5,-470.98 4.5,-367.98 616.5,-367.98 616.5,-470.98"/>
<text text-anchor="start" x="266" y="-454.28" font-family="Times,serif" font-weight="bold" font-size="14.00">conv2d_2_3</text>
<text text-anchor="start" x="240.5" y="-434.28" font-family="Times,serif" font-size="14.00">(1, 16, 8, 8), 4.0 KB</text>
<text text-anchor="start" x="14.5" y="-415.28" font-family="Times,serif" font-size="14.00">in_channels=8, out_channels=16, kernel_size=(3, 3), stride=(2, 2), padding=(1, 1)</text>
<text text-anchor="start" x="171" y="-396.28" font-family="Times,serif" font-size="14.00">params: weight (16, 8, 3, 3) · bias (16,)</text>
<text text-anchor="start" x="282" y="-377.28" font-family="Times,serif" font-size="14.00">@conv2</text>
</g>
<!-- relu_1_2pass1&#45;&gt;conv2d_2_3pass1 -->
<g id="edge3" class="edge">
<title>relu_1_2pass1&#45;&gt;conv2d_2_3pass1</title>
<path fill="none" stroke="black" d="M310.5,-332.08C310.5,-340.87 310.5,-350.7 310.5,-360.5"/>
<polygon fill="black" stroke="black" points="308.05,-360.61 310.5,-367.61 312.95,-360.61 308.05,-360.61"/>
</g>
<!-- relu_2_4pass1 -->
<g id="node5" class="node">
<title>relu_2_4pass1</title>
<ellipse fill="white" stroke="black" cx="310.5" cy="-539.5" rx="113.27" ry="32.55"/>
<text text-anchor="start" x="277.5" y="-546.3" font-family="Times,serif" font-weight="bold" font-size="14.00">relu_2_4</text>
<text text-anchor="start" x="240.5" y="-526.3" font-family="Times,serif" font-size="14.00">(1, 16, 8, 8), 4.0 KB</text>
</g>
<!-- conv2d_2_3pass1&#45;&gt;relu_2_4pass1 -->
<g id="edge4" class="edge">
<title>conv2d_2_3pass1&#45;&gt;relu_2_4pass1</title>
<path fill="none" stroke="black" d="M310.5,-471.22C310.5,-480.78 310.5,-490.64 310.5,-499.76"/>
<polygon fill="black" stroke="black" points="308.05,-499.9 310.5,-506.9 312.95,-499.9 308.05,-499.9"/>
</g>
<!-- conv2d_3_5pass1 -->
<g id="node6" class="node">
<title>conv2d_3_5pass1</title>
<polygon fill="#d9d9d9" stroke="black" points="621,-711.03 0,-711.03 0,-608.03 621,-608.03 621,-711.03"/>
<text text-anchor="start" x="266.5" y="-694.33" font-family="Times,serif" font-weight="bold" font-size="14.00">conv2d_3_5</text>
<text text-anchor="start" x="241" y="-674.33" font-family="Times,serif" font-size="14.00">(1, 32, 4, 4), 2.0 KB</text>
<text text-anchor="start" x="10.5" y="-655.33" font-family="Times,serif" font-size="14.00">in_channels=16, out_channels=32, kernel_size=(3, 3), stride=(2, 2), padding=(1, 1)</text>
<text text-anchor="start" x="167" y="-636.33" font-family="Times,serif" font-size="14.00">params: weight (32, 16, 3, 3) · bias (32,)</text>
<text text-anchor="start" x="282.5" y="-617.33" font-family="Times,serif" font-size="14.00">@conv3</text>
</g>
<!-- relu_2_4pass1&#45;&gt;conv2d_3_5pass1 -->
<g id="edge5" class="edge">
<title>relu_2_4pass1&#45;&gt;conv2d_3_5pass1</title>
<path fill="none" stroke="black" d="M310.5,-572.13C310.5,-580.93 310.5,-590.76 310.5,-600.55"/>
<polygon fill="black" stroke="black" points="308.05,-600.66 310.5,-607.66 312.95,-600.66 308.05,-600.66"/>
</g>
<!-- relu_3_6pass1 -->
<g id="node7" class="node">
<title>relu_3_6pass1</title>
<ellipse fill="white" stroke="black" cx="310.5" cy="-779.56" rx="113.27" ry="32.55"/>
<text text-anchor="start" x="277.5" y="-786.36" font-family="Times,serif" font-weight="bold" font-size="14.00">relu_3_6</text>
<text text-anchor="start" x="240.5" y="-766.36" font-family="Times,serif" font-size="14.00">(1, 32, 4, 4), 2.0 KB</text>
</g>
<!-- conv2d_3_5pass1&#45;&gt;relu_3_6pass1 -->
<g id="edge6" class="edge">
<title>conv2d_3_5pass1&#45;&gt;relu_3_6pass1</title>
<path fill="none" stroke="black" d="M310.5,-711.27C310.5,-720.83 310.5,-730.69 310.5,-739.82"/>
<polygon fill="black" stroke="black" points="308.05,-739.96 310.5,-746.96 312.95,-739.96 308.05,-739.96"/>
</g>
<!-- adaptiveavgpool2d_1_7pass1 -->
<g id="node8" class="node">
<title>adaptiveavgpool2d_1_7pass1</title>
<polygon fill="white" stroke="black" points="410.5,-932.09 210.5,-932.09 210.5,-848.09 410.5,-848.09 410.5,-932.09"/>
<text text-anchor="start" x="220.5" y="-915.89" font-family="Times,serif" font-weight="bold" font-size="14.00">adaptiveavgpool2d_1_7</text>
<text text-anchor="start" x="243.5" y="-895.89" font-family="Times,serif" font-size="14.00">(1, 32, 1, 1), 128 B</text>
<text text-anchor="start" x="259" y="-876.89" font-family="Times,serif" font-size="14.00">output_size=1</text>
<text text-anchor="start" x="288" y="-857.89" font-family="Times,serif" font-size="14.00">@pool</text>
</g>
<!-- relu_3_6pass1&#45;&gt;adaptiveavgpool2d_1_7pass1 -->
<g id="edge7" class="edge">
<title>relu_3_6pass1&#45;&gt;adaptiveavgpool2d_1_7pass1</title>
<path fill="none" stroke="black" d="M310.5,-812.24C310.5,-821.12 310.5,-830.97 310.5,-840.58"/>
<polygon fill="black" stroke="black" points="308.05,-840.86 310.5,-847.86 312.95,-840.86 308.05,-840.86"/>
</g>
<!-- flatten_1_8pass1 -->
<g id="node9" class="node">
<title>flatten_1_8pass1</title>
<ellipse fill="white" stroke="black" cx="310.5" cy="-1000.61" rx="83.38" ry="32.55"/>
<text text-anchor="start" x="267.5" y="-1007.41" font-family="Times,serif" font-weight="bold" font-size="14.00">flatten_1_8</text>
<text text-anchor="start" x="261.5" y="-987.41" font-family="Times,serif" font-size="14.00">(1, 32), 128 B</text>
</g>
<!-- adaptiveavgpool2d_1_7pass1&#45;&gt;flatten_1_8pass1 -->
<g id="edge8" class="edge">
<title>adaptiveavgpool2d_1_7pass1&#45;&gt;flatten_1_8pass1</title>
<path fill="none" stroke="black" d="M310.5,-932.11C310.5,-941.59 310.5,-951.63 310.5,-960.99"/>
<polygon fill="black" stroke="black" points="308.05,-961 310.5,-968 312.95,-961 308.05,-961"/>
</g>
<!-- linear_1_9pass1 -->
<g id="node10" class="node">
<title>linear_1_9pass1</title>
<polygon fill="#d9d9d9" stroke="black" points="446.5,-1172.14 174.5,-1172.14 174.5,-1069.14 446.5,-1069.14 446.5,-1172.14"/>
<text text-anchor="start" x="270.5" y="-1155.44" font-family="Times,serif" font-weight="bold" font-size="14.00">linear_1_9</text>
<text text-anchor="start" x="266" y="-1135.44" font-family="Times,serif" font-size="14.00">(1, 10), 40 B</text>
<text text-anchor="start" x="191.5" y="-1116.44" font-family="Times,serif" font-size="14.00">in_features=32, out_features=10</text>
<text text-anchor="start" x="184.5" y="-1097.44" font-family="Times,serif" font-size="14.00">params: weight (10, 32) · bias (10,)</text>
<text text-anchor="start" x="286" y="-1078.44" font-family="Times,serif" font-size="14.00">@head</text>
</g>
<!-- flatten_1_8pass1&#45;&gt;linear_1_9pass1 -->
<g id="edge9" class="edge">
<title>flatten_1_8pass1&#45;&gt;linear_1_9pass1</title>
<path fill="none" stroke="black" d="M310.5,-1033.24C310.5,-1042.03 310.5,-1051.87 310.5,-1061.66"/>
<polygon fill="black" stroke="black" points="308.05,-1061.77 310.5,-1068.77 312.95,-1061.77 308.05,-1061.77"/>
</g>
<!-- output_1pass1 -->
<g id="node11" class="node">
<title>output_1pass1</title>
<ellipse fill="#ff9999" stroke="black" cx="310.5" cy="-1254.1" rx="77.15" ry="45.92"/>
<text text-anchor="start" x="276" y="-1269.9" font-family="Times,serif" font-weight="bold" font-size="14.00">output_1</text>
<text text-anchor="start" x="266.5" y="-1249.9" font-family="Times,serif" font-size="14.00">(1, 10), 40 B</text>
<text text-anchor="start" x="280" y="-1230.9" font-family="Times,serif" font-size="14.00">@output</text>
</g>
<!-- linear_1_9pass1&#45;&gt;output_1pass1 -->
<g id="edge10" class="edge">
<title>linear_1_9pass1&#45;&gt;output_1pass1</title>
<path fill="none" stroke="black" d="M310.5,-1172.47C310.5,-1181.79 310.5,-1191.54 310.5,-1200.91"/>
<polygon fill="black" stroke="black" points="308.05,-1200.98 310.5,-1207.98 312.95,-1200.98 308.05,-1200.98"/>
</g>
</g>
</svg>
