<?xml version="1.0" encoding="UTF-8" standalone="no"?>
<!DOCTYPE svg PUBLIC "-//W3C//DTD SVG 1.1//EN"
 "http://www.w3.org/Graphics/SVG/1.1/DTD/svg11.dtd">
<!-- Generated by graphviz version 2.43.0 (0)
 -->
<!-- Title: ResNet Pages: 1 -->
<svg width="620pt" height="1495pt"
 viewBox="0.00 0.00 620.00 1494.90" xmlns="http://www.w3.org/2000/svg" xmlns:xlink="http://www.w3.org/1999/xlink">
<g id="graph0" class="graph" transform="scale(1 1) rotate(0) translate(4 1490.9)">
<title>ResNet</title>
<polygon fill="white" stroke="transparent" points="-4,4 -4,-1490.9 616,-1490.9 616,4 -4,4"/>
<text text-anchor="start" x="8" y="-1472.7" font-family="Times,serif" font-weight="bold" font-size="14.00">ResNet</text>
<text text-anchor="start" x="8" y="-1458.7" font-family="Times,serif" font-size="14.00">389 tensors total (12.2 MB)</text>
<text text-anchor="start" x="8" y="-1444.7" font-family="Times,serif" font-size="14.00">25557032 params (all trainable, 97.5 MB)</text>
<!-- input_1pass1 -->
<g id="node1" class="node">
<title>input_1pass1</title>
<ellipse fill="#98fb98" stroke="black" cx="306" cy="-45.96" rx="125.73" ry="45.92"/>
<text text-anchor="start" x="276" y="-61.76" font-family="Times,serif" font-weight="bold" font-size="14.00">input_1</text>
<text text-anchor="start" x="227" y="-41.76" font-family="Times,serif" font-size="14.00">(1, 3, 64, 64), 48.0 KB</text>
<text text-anchor="start" x="273.5" y="-22.76" font-family="Times,serif" font-size="14.00">@input.x</text>
</g>
<!-- conv2d_1_1pass1 -->
<g id="node2" class="node">
<title>conv2d_1_1pass1</title>
<polygon fill="#d9d9d9" stroke="black" points="612,-230.92 0,-230.92 0,-127.92 612,-127.92 612,-230.92"/>
<text text-anchor="start" x="261.5" y="-214.22" font-family="Times,serif" font-weight="bold" font-size="14.00">conv2d_1_1</text>
<text text-anchor="start" x="218" y="-194.22" font-family="Times,serif" font-size="14.00">(1, 64, 32, 32), 256.0 KB</text>
<text text-anchor="start" x="10" y="-175.22" font-family="Times,serif" font-size="14.00">in_channels=3, out_channels=64, kernel_size=(7, 7), stride=(2, 2), padding=(3, 3)</text>
<text text-anchor="start" x="206.5" y="-156.22" font-family="Times,serif" font-size="14.00">params: weight (64, 3, 7, 7)</text>
<text text-anchor="start" x="277.5" y="-137.22" font-family="Times,serif" font-size="14.00">@conv1</text>
</g>
<!-- input_1pass1&#45;&gt;conv2d_1_1pass1 -->
<g id="edge1" class="edge">
<title>input_1pass1&#45;&gt;conv2d_1_1pass1</title>
<path fill="none" stroke="black" d="M306,-92.2C306,-101.32 306,-111.02 306,-120.5"/>
<polygon fill="black" stroke="black" points="303.55,-120.69 306,-127.69 308.45,-120.69 303.55,-120.69"/>
</g>
<!-- batchnorm_1_2pass1 -->
<g id="node3" class="node">
<title>batchnorm_1_2pass1</title>
<g id="a_node3"><a xlink:title="Hidden buffers: bn1.running_mean, bn1.running_var">
<polygon fill="#d9d9d9" stroke="black" points="430.5,-373.92 181.5,-373.92 181.5,-270.92 430.5,-270.92 430.5,-373.92"/>
<polygon fill="none" stroke="black" points="434.5,-377.92 177.5,-377.92 177.5,-266.92 434.5,-266.92 434.5,-377.92"/>
<text text-anchor="start" x="246.5" y="-357.22" font-family="Times,serif" font-weight="bold" font-size="14.00">batchnorm_1_2</text>
<text text-anchor="start" x="218.5" y="-337.22" font-family="Times,serif" font-size="14.00">(1, 64, 32, 32), 256.0 KB</text>
<text text-anchor="start" x="205.5" y="-318.22" font-family="Times,serif" font-size="14.00">eps=1e&#45;05, momentum=0.1</text>
<text text-anchor="start" x="192" y="-299.22" font-family="Times,serif" font-size="14.00">params: weight (64,) · bias (64,)</text>
<text text-anchor="start" x="285.5" y="-280.22" font-family="Times,serif" font-size="14.00">@bn1</text>
</a>
</g>
</g>
<!-- conv2d_1_1pass1&#45;&gt;batchnorm_1_2pass1 -->
<g id="edge2" class="edge">
<title>conv2d_1_1pass1&#45;&gt;batchnorm_1_2pass1</title>
<path fill="none" stroke="black" d="M306,-230.93C306,-240.12 306,-249.81 306,-259.29"/>
<polygon fill="black" stroke="black" points="303.55,-259.49 306,-266.49 308.45,-259.49 303.55,-259.49"/>
</g>
<!-- relu_1_3pass1 -->
<g id="node4" class="node">
<title>relu_1_3pass1</title>
<polygon fill="white" stroke="black" points="404,-478.92 208,-478.92 208,-413.92 404,-413.92 404,-478.92"/>
<text text-anchor="start" x="273" y="-462.22" font-family="Times,serif" font-weight="bold" font-size="14.00">relu_1_3</text>
<text text-anchor="start" x="218" y="-442.22" font-family="Times,serif" font-size="14.00">(1, 64, 32, 32), 256.0 KB</text>
<text text-anchor="start" x="284.5" y="-423.22" font-family="Times,serif" font-size="14.00">@relu</text>
</g>
<!-- batchnorm_1_2pass1&#45;&gt;relu_1_3pass1 -->
<g id="edge3" class="edge">
<title>batchnorm_1_2pass1&#45;&gt;relu_1_3pass1</title>
<path fill="none" stroke="black" d="M306,-378C306,-387.61 306,-397.44 306,-406.51"/>
<polygon fill="black" stroke="black" points="303.55,-406.61 306,-413.61 308.45,-406.61 303.55,-406.61"/>
</g>
<!-- maxpool2d_1_4pass1 -->
<g id="node5" class="node">
<title>maxpool2d_1_4pass1</title>
<polygon fill="white" stroke="black" points="446.5,-598.92 165.5,-598.92 165.5,-514.92 446.5,-514.92 446.5,-598.92"/>
<text text-anchor="start" x="247.5" y="-582.72" font-family="Times,serif" font-weight="bold" font-size="14.00">maxpool2d_1_4</text>
<text text-anchor="start" x="223" y="-562.72" font-family="Times,serif" font-size="14.00">(1, 64, 16, 16), 64.0 KB</text>
<text text-anchor="start" x="176" y="-543.72" font-family="Times,serif" font-size="14.00">kernel_size=3, stride=2, padding=1</text>
<text text-anchor="start" x="269" y="-524.72" font-family="Times,serif" font-size="14.00">@maxpool</text>
</g>
<!-- relu_1_3pass1&#45;&gt;maxpool2d_1_4pass1 -->
<g id="edge4" class="edge">
<title>relu_1_3pass1&#45;&gt;maxpool2d_1_4pass1</title>
<path fill="none" stroke="black" d="M306,-479.1C306,-487.97 306,-497.82 306,-507.43"/>
<polygon fill="black" stroke="black" points="303.55,-507.71 306,-514.71 308.45,-507.71 303.55,-507.71"/>
</g>
<!-- layer1__segment__layer2pass1 -->
<g id="node6" class="node">
<title>layer1__segment__layer2pass1</title>
<path fill="#f7f7f7" stroke="#666666" stroke-dasharray="5,2" d="M535.5,-670.92C535.5,-670.92 76.5,-670.92 76.5,-670.92 70.5,-670.92 64.5,-664.92 64.5,-658.92 64.5,-658.92 64.5,-646.92 64.5,-646.92 64.5,-640.92 70.5,-634.92 76.5,-634.92 76.5,-634.92 535.5,-634.92 535.5,-634.92 541.5,-634.92 547.5,-640.92 547.5,-646.92 547.5,-646.92 547.5,-658.92 547.5,-658.92 547.5,-664.92 541.5,-670.92 535.5,-670.92"/>
<text text-anchor="start" x="75" y="-649.72" font-family="Times,serif" font-weight="bold" font-size="14.00" fill="#222222">layer1&#45;layer2 &#45;&#45; 2 blocks, 74 ops + 92 buffers, 1.4M params</text>
</g>
<!-- maxpool2d_1_4pass1&#45;&gt;layer1__segment__layer2pass1 -->
<g id="edge5" class="edge">
<title>maxpool2d_1_4pass1&#45;&gt;layer1__segment__layer2pass1</title>
<path fill="none" stroke="black" d="M306,-599.15C306,-608.77 306,-618.71 306,-627.34"/>
<polygon fill="black" stroke="black" points="303.55,-627.54 306,-634.54 308.45,-627.54 303.55,-627.54"/>
</g>
<!-- layer3pass1 -->
<g id="node7" class="node">
<title>layer3pass1</title>
<polygon fill="#d9d9d9" stroke="black" points="427.5,-809.92 188.5,-809.92 184.5,-805.92 184.5,-706.92 423.5,-706.92 427.5,-710.92 427.5,-809.92"/>
<polyline fill="none" stroke="black" points="423.5,-805.92 184.5,-805.92 "/>
<polyline fill="none" stroke="black" points="423.5,-805.92 423.5,-706.92 "/>
<polyline fill="none" stroke="black" points="423.5,-805.92 427.5,-809.92 "/>
<text text-anchor="start" x="274.5" y="-793.22" font-family="Times,serif" font-weight="bold" font-size="14.00">@layer3</text>
<text text-anchor="start" x="268" y="-773.22" font-family="Times,serif" font-size="14.00">Sequential</text>
<text text-anchor="start" x="223" y="-754.22" font-family="Times,serif" font-size="14.00">(1, 1024, 4, 4), 64.0 KB</text>
<text text-anchor="start" x="235.5" y="-735.22" font-family="Times,serif" font-size="14.00">62 ops + 76 buffers</text>
<text text-anchor="start" x="195" y="-716.22" font-family="Times,serif" font-size="14.00">7098368 params (all trainable)</text>
</g>
<!-- layer1__segment__layer2pass1&#45;&gt;layer3pass1 -->
<g id="edge6" class="edge">
<title>layer1__segment__layer2pass1&#45;&gt;layer3pass1</title>
<path fill="none" stroke="black" d="M306,-671.01C306,-679.04 306,-689.12 306,-699.54"/>
<polygon fill="black" stroke="black" points="303.55,-699.78 306,-706.78 308.45,-699.78 303.55,-699.78"/>
</g>
<!-- layer4pass1 -->
<g id="node8" class="node">
<title>layer4pass1</title>
<polygon fill="#d9d9d9" stroke="black" points="432,-948.92 184,-948.92 180,-944.92 180,-845.92 428,-845.92 432,-849.92 432,-948.92"/>
<polyline fill="none" stroke="black" points="428,-944.92 180,-944.92 "/>
<polyline fill="none" stroke="black" points="428,-944.92 428,-845.92 "/>
<polyline fill="none" stroke="black" points="428,-944.92 432,-948.92 "/>
<text text-anchor="start" x="274" y="-932.22" font-family="Times,serif" font-weight="bold" font-size="14.00">@layer4</text>
<text text-anchor="start" x="267.5" y="-912.22" font-family="Times,serif" font-size="14.00">Sequential</text>
<text text-anchor="start" x="222.5" y="-893.22" font-family="Times,serif" font-size="14.00">(1, 2048, 2, 2), 32.0 KB</text>
<text text-anchor="start" x="235" y="-874.22" font-family="Times,serif" font-size="14.00">32 ops + 40 buffers</text>
<text text-anchor="start" x="190" y="-855.22" font-family="Times,serif" font-size="14.00">14964736 params (all trainable)</text>
</g>
<!-- layer3pass1&#45;&gt;layer4pass1 -->
<g id="edge7" class="edge">
<title>layer3pass1&#45;&gt;layer4pass1</title>
<path fill="none" stroke="black" d="M306,-810.05C306,-819.28 306,-828.98 306,-838.41"/>
<polygon fill="black" stroke="black" points="303.55,-838.55 306,-845.55 308.45,-838.55 303.55,-838.55"/>
</g>
<!-- adaptiveavgpool2d_1_173pass1 -->
<g id="node9" class="node">
<title>adaptiveavgpool2d_1_173pass1</title>
<polygon fill="white" stroke="black" points="415.5,-1068.92 196.5,-1068.92 196.5,-984.92 415.5,-984.92 415.5,-1068.92"/>
<text text-anchor="start" x="207" y="-1052.72" font-family="Times,serif" font-weight="bold" font-size="14.00">adaptiveavgpool2d_1_173</text>
<text text-anchor="start" x="227.5" y="-1032.72" font-family="Times,serif" font-size="14.00">(1, 2048, 1, 1), 8.0 KB</text>
<text text-anchor="start" x="240.5" y="-1013.72" font-family="Times,serif" font-size="14.00">output_size=(1, 1)</text>
<text text-anchor="start" x="271.5" y="-994.72" font-family="Times,serif" font-size="14.00">@avgpool</text>
</g>
<!-- layer4pass1&#45;&gt;adaptiveavgpool2d_1_173pass1 -->
<g id="edge8" class="edge">
<title>layer4pass1&#45;&gt;adaptiveavgpool2d_1_173pass1</title>
<path fill="none" stroke="black" d="M306,-949.18C306,-958.59 306,-968.39 306,-977.72"/>
<polygon fill="black" stroke="black" points="303.55,-977.75 306,-984.75 308.45,-977.75 303.55,-977.75"/>
</g>
<!-- flatten_1_174pass1 -->
<g id="node10" class="node">
<title>flatten_1_174pass1</title>
<ellipse fill="white" stroke="black" cx="306" cy="-1137.45" rx="100.32" ry="32.55"/>
<text text-anchor="start" x="253" y="-1144.25" font-family="Times,serif" font-weight="bold" font-size="14.00">flatten_1_174</text>
<text text-anchor="start" x="245" y="-1124.25" font-family="Times,serif" font-size="14.00">(1, 2048), 8.0 KB</text>
</g>
<!-- adaptiveavgpool2d_1_173pass1&#45;&gt;flatten_1_174pass1 -->
<g id="edge9" class="edge">
<title>adaptiveavgpool2d_1_173pass1&#45;&gt;flatten_1_174pass1</title>
<path fill="none" stroke="black" d="M306,-1068.95C306,-1078.42 306,-1088.47 306,-1097.83"/>
<polygon fill="black" stroke="black" points="303.55,-1097.84 306,-1104.84 308.45,-1097.84 303.55,-1097.84"/>
</g>
<!-- linear_1_175pass1 -->
<g id="node11" class="node">
<title>linear_1_175pass1</title>
<polygon fill="#d9d9d9" stroke="black" points="469,-1308.98 143,-1308.98 143,-1205.98 469,-1205.98 469,-1308.98"/>
<text text-anchor="start" x="256" y="-1292.28" font-family="Times,serif" font-weight="bold" font-size="14.00">linear_1_175</text>
<text text-anchor="start" x="245" y="-1272.28" font-family="Times,serif" font-size="14.00">(1, 1000), 3.9 KB</text>
<text text-anchor="start" x="169" y="-1253.28" font-family="Times,serif" font-size="14.00">in_features=2048, out_features=1000</text>
<text text-anchor="start" x="153" y="-1234.28" font-family="Times,serif" font-size="14.00">params: weight (1000, 2048) · bias (1000,)</text>
<text text-anchor="start" x="292" y="-1215.28" font-family="Times,serif" font-size="14.00">@fc</text>
</g>
<!-- flatten_1_174pass1&#45;&gt;linear_1_175pass1 -->
<g id="edge10" class="edge">
<title>flatten_1_174pass1&#45;&gt;linear_1_175pass1</title>
<path fill="none" stroke="black" d="M306,-1170.08C306,-1178.87 306,-1188.7 306,-1198.5"/>
<polygon fill="black" stroke="black" points="303.55,-1198.61 306,-1205.61 308.45,-1198.61 303.55,-1198.61"/>
</g>
<!-- output_1pass1 -->
<g id="node12" class="node">
<title>output_1pass1</title>
<ellipse fill="#ff9999" stroke="black" cx="306" cy="-1390.94" rx="100.32" ry="45.92"/>
<text text-anchor="start" x="271" y="-1406.74" font-family="Times,serif" font-weight="bold" font-size="14.00">output_1</text>
<text text-anchor="start" x="245" y="-1386.74" font-family="Times,serif" font-size="14.00">(1, 1000), 3.9 KB</text>
<text text-anchor="start" x="275" y="-1367.74" font-family="Times,serif" font-size="14.00">@output</text>
</g>
<!-- linear_1_175pass1&#45;&gt;output_1pass1 -->
<g id="edge11" class="edge">
<title>linear_1_175pass1&#45;&gt;output_1pass1</title>
<path fill="none" stroke="black" d="M306,-1309.3C306,-1318.63 306,-1328.38 306,-1337.75"/>
<polygon fill="black" stroke="black" points="303.55,-1337.82 306,-1344.82 308.45,-1337.82 303.55,-1337.82"/>
</g>
</g>
</svg>
